<svg width="16" height="16" viewBox="0 0 16 16" fill="none" xmlns="http://www.w3.org/2000/svg">
<g clip-path="url(#clip0_1852_27141)">
<path d="M15.5 13.5H8.5C8.224 13.5 8 13.276 8 13C8 12.724 8 3.276 8 3C8 2.724 8.224 2.5 8.5 2.5H15.5C15.776 2.5 16 2.724 16 3V13C16 13.276 15.776 13.5 15.5 13.5Z" fill="#E6E8EA"/>
<path d="M10.5 5.5H8.5C8.224 5.5 8 5.276 8 5C8 4.724 8.224 4.5 8.5 4.5H10.5C10.776 4.5 11 4.724 11 5C11 5.276 10.776 5.5 10.5 5.5Z" fill="#008033"/>
<path d="M10.5 7.5H8.5C8.224 7.5 8 7.276 8 7C8 6.724 8.224 6.5 8.5 6.5H10.5C10.776 6.5 11 6.724 11 7C11 7.276 10.776 7.5 10.5 7.5Z" fill="#008033"/>
<path d="M10.5 9.5H8.5C8.224 9.5 8 9.276 8 9C8 8.724 8.224 8.5 8.5 8.5H10.5C10.776 8.5 11 8.724 11 9C11 9.276 10.776 9.5 10.5 9.5Z" fill="#008033"/>
<path d="M10.5 11.5H8.5C8.224 11.5 8 11.276 8 11C8 10.724 8.224 10.5 8.5 10.5H10.5C10.776 10.5 11 10.724 11 11C11 11.276 10.776 11.5 10.5 11.5Z" fill="#008033"/>
<path d="M13.5 5.5H12.5C12.224 5.5 12 5.276 12 5C12 4.724 12.224 4.5 12.5 4.5H13.5C13.776 4.5 14 4.724 14 5C14 5.276 13.776 5.5 13.5 5.5Z" fill="#008033"/>
<path d="M13.5 7.5H12.5C12.224 7.5 12 7.276 12 7C12 6.724 12.224 6.5 12.5 6.5H13.5C13.776 6.5 14 6.724 14 7C14 7.276 13.776 7.5 13.5 7.5Z" fill="#008033"/>
<path d="M13.5 9.5H12.5C12.224 9.5 12 9.276 12 9C12 8.724 12.224 8.5 12.5 8.5H13.5C13.776 8.5 14 8.724 14 9C14 9.276 13.776 9.5 13.5 9.5Z" fill="#008033"/>
<path d="M13.5 11.5H12.5C12.224 11.5 12 11.276 12 11C12 10.724 12.224 10.5 12.5 10.5H13.5C13.776 10.5 14 10.724 14 11C14 11.276 13.776 11.5 13.5 11.5Z" fill="#008033"/>
<path d="M8.819 0.615674C8.705 0.520674 8.552 0.479674 8.408 0.509674L0.408 2.00967C0.171 2.05367 0 2.25967 0 2.50067V13.5007C0 13.7407 0.171 13.9477 0.408 13.9917L8.408 15.4917C8.438 15.4977 8.469 15.5007 8.5 15.5007C8.616 15.5007 8.729 15.4607 8.819 15.3857C8.934 15.2907 9 15.1487 9 15.0007V1.00067C9 0.851674 8.934 0.710674 8.819 0.615674Z" fill="#008033"/>
<path d="M2.40002 5.59961L6.40002 9.59961" stroke="white" stroke-linecap="round"/>
<path d="M2.40002 9.59961L6.40002 5.59961" stroke="white" stroke-linecap="round"/>
</g>
<defs>
<clipPath id="clip0_1852_27141">
<rect width="16" height="16" fill="white"/>
</clipPath>
</defs>
</svg>
