<svg width="40" height="40" viewBox="0 0 40 40" fill="none" xmlns="http://www.w3.org/2000/svg">
<mask id="mask0_1336_13539" style="mask-type:alpha" maskUnits="userSpaceOnUse" x="0" y="0" width="40" height="40">
<circle cx="20" cy="20" r="20" fill="#00AAFF"/>
</mask>
<g mask="url(#mask0_1336_13539)">
<circle cx="20" cy="20" r="20" fill="#FFD522"/>
<path d="M19.9964 47.6515C29.4413 47.6515 37.0979 39.8119 37.0979 30.1414C37.0979 20.4709 29.4413 12.6313 19.9964 12.6313C10.5514 12.6313 2.89478 20.4709 2.89478 30.1414C2.89478 39.8119 10.5514 47.6515 19.9964 47.6515Z" fill="#565656"/>
<path d="M20.8274 46.7048H19.1591C11.305 46.7048 4.93799 40.1857 4.93799 32.144V15.6256C4.93799 13.9238 6.28762 12.5483 7.94342 12.5483H32.0431C33.7051 12.5483 35.0485 13.9302 35.0485 15.6256V32.144C35.0548 40.1857 28.6878 46.7048 20.8274 46.7048Z" fill="#565656"/>
<path d="M4.93799 10.4758V16.867C4.93799 17.6219 5.73152 18.0889 6.36885 17.7114L11.7736 14.5127C12.4109 14.1352 12.4109 13.1948 11.7736 12.8173L6.36885 9.61856C5.73152 9.2539 4.93799 9.72092 4.93799 10.4758Z" fill="#565656"/>
<path d="M35.0548 10.1941V16.5852C35.0548 17.3401 34.2613 17.8072 33.624 17.4297L28.2192 14.2309C27.5819 13.8535 27.5819 12.913 28.2192 12.5356L33.624 9.33682C34.2613 8.97216 35.0548 9.43918 35.0548 10.1941Z" fill="#565656"/>
<path d="M32.4743 19.2594C31.2434 17.9479 29.5439 17.1418 27.6631 17.1418C25.7824 17.1418 24.0829 17.9543 22.852 19.2594C21.621 20.5709 20.8587 22.375 20.8587 24.371C20.8587 26.367 21.621 28.1775 22.852 29.4826C24.0829 30.7941 25.7824 31.6002 27.6631 31.6002C29.5439 31.6002 31.2434 30.7877 32.4743 29.4826C33.7052 28.1711 34.4675 26.367 34.4675 24.371C34.4675 22.375 33.7052 20.5709 32.4743 19.2594ZM17.141 19.2594C15.9101 17.9479 14.2106 17.1418 12.3298 17.1418C10.4491 17.1418 8.74956 17.9543 7.51864 19.2594C6.28773 20.5709 5.52544 22.375 5.52544 24.371C5.52544 26.367 6.28773 28.1775 7.51864 29.4826C8.74956 30.7941 10.4491 31.6066 12.3298 31.6066C14.2106 31.6066 15.9101 30.7941 17.141 29.489C18.3719 28.1775 19.1342 26.3734 19.1342 24.3774C19.1342 22.375 18.3719 20.5709 17.141 19.2594ZM12.3298 15.8047C14.5542 15.8047 16.5724 16.7643 18.0283 18.3125C18.9155 19.253 19.5966 20.4173 19.9965 21.716C20.3964 20.4173 21.0774 19.2594 21.9647 18.3125C23.4205 16.7643 25.4387 15.8047 27.6631 15.8047C29.8875 15.8047 31.9057 16.7643 33.3616 18.3125C34.8174 19.8607 35.7234 22.0039 35.7234 24.371C35.7234 26.7381 34.8237 28.8749 33.3616 30.4295C31.9057 31.9777 29.8875 32.9373 27.6631 32.9373C25.4387 32.9373 23.4205 31.9777 21.9647 30.4295C21.0774 29.489 20.3964 28.3247 19.9965 27.026C19.5966 28.3247 18.9155 29.4826 18.0283 30.4295C16.5724 31.9777 14.5542 32.9373 12.3298 32.9373C10.1054 32.9373 8.08724 31.9777 6.63139 30.4295C5.17553 28.8813 4.26953 26.7381 4.26953 24.371C4.26953 22.0039 5.16929 19.8671 6.63139 18.3125C8.08724 16.7643 10.1054 15.8047 12.3298 15.8047Z" fill="black"/>
<path fill-rule="evenodd" clip-rule="evenodd" d="M19.1342 24.3708C19.1342 22.3748 18.3719 20.5643 17.141 19.2592C15.9101 17.9477 14.2105 17.1416 12.3298 17.1416C10.449 17.1416 8.74951 17.9541 7.5186 19.2592C6.28768 20.5707 5.52539 22.3748 5.52539 24.3708C5.52539 25.1577 5.64411 25.919 5.8628 26.6291C6.20021 27.7167 6.77505 28.6956 7.5186 29.4888C8.67453 30.7172 10.2491 31.5105 11.9924 31.6C12.1048 31.6064 12.2173 31.6064 12.3298 31.6064C14.2105 31.6064 15.9101 30.7939 17.141 29.4888C18.3719 28.1774 19.1342 26.3669 19.1342 24.3708Z" fill="white"/>
<path fill-rule="evenodd" clip-rule="evenodd" d="M34.4674 24.3708C34.4674 22.3748 33.7051 20.5643 32.4742 19.2592C31.2433 17.9477 29.5438 17.1416 27.663 17.1416C25.7823 17.1416 24.0828 17.9541 22.8518 19.2592C21.6209 20.5707 20.8586 22.3748 20.8586 24.3708C20.8586 26.3669 21.6209 28.1774 22.8518 29.4825C24.0828 30.794 25.7823 31.6 27.663 31.6C27.8255 31.6 27.9817 31.5936 28.1379 31.5808C29.8249 31.4593 31.3433 30.6788 32.4742 29.4825C33.249 28.6572 33.8363 27.6336 34.1675 26.4948C34.3612 25.8231 34.4674 25.1129 34.4674 24.3708Z" fill="white"/>
<path d="M12.3298 28.2098C14.4003 28.2098 16.0788 26.4912 16.0788 24.3712C16.0788 22.2513 14.4003 20.5327 12.3298 20.5327C10.2593 20.5327 8.58081 22.2513 8.58081 24.3712C8.58081 26.4912 10.2593 28.2098 12.3298 28.2098Z" fill="#0F0F00"/>
<path d="M27.6628 28.2098C29.7333 28.2098 31.4118 26.4912 31.4118 24.3712C31.4118 22.2513 29.7333 20.5327 27.6628 20.5327C25.5923 20.5327 23.9138 22.2513 23.9138 24.3712C23.9138 26.4912 25.5923 28.2098 27.6628 28.2098Z" fill="#0F0F00"/>
<path d="M22.2394 30.5705L19.9963 33.7756L17.7532 30.5705L19.9963 27.3589L22.2394 30.5705Z" fill="#FFD522"/>
<path d="M22.2394 30.5703L19.9963 33.7755L17.7532 30.5703H22.2394Z" fill="#B28700"/>
<path d="M19.9963 27.3586L22.2394 30.5701L19.9963 33.7753L17.7531 30.5637L19.9963 27.3586ZM19.9963 26.335C19.6714 26.335 19.3715 26.4949 19.184 26.7636L16.9409 29.9752C16.6909 30.3334 16.6909 30.8068 16.9409 31.1651L19.184 34.3767C19.3715 34.6454 19.6776 34.8053 19.9963 34.8053C20.3212 34.8053 20.6211 34.6454 20.8086 34.3767L23.0517 31.1651C23.3016 30.8068 23.3016 30.3334 23.0517 29.9752L20.8086 26.7636C20.6211 26.4949 20.3212 26.335 19.9963 26.335Z" fill="black"/>
<path d="M10.9738 24.6459C11.4948 24.6459 11.9173 24.2134 11.9173 23.6799C11.9173 23.1464 11.4948 22.7139 10.9738 22.7139C10.4527 22.7139 10.0303 23.1464 10.0303 23.6799C10.0303 24.2134 10.4527 24.6459 10.9738 24.6459Z" fill="#00AAFF"/>
<path d="M26.0634 24.6459C26.5844 24.6459 27.0069 24.2134 27.0069 23.6799C27.0069 23.1464 26.5844 22.7139 26.0634 22.7139C25.5423 22.7139 25.1199 23.1464 25.1199 23.6799C25.1199 24.2134 25.5423 24.6459 26.0634 24.6459Z" fill="#00AAFF"/>
</g>
</svg>
