<?xml version="1.0" encoding="utf-8"?>
<!-- Generator: Adobe Illustrator 26.0.0, SVG Export Plug-In . SVG Version: 6.00 Build 0)  -->
<svg version="1.1" id="레이어_1" xmlns="http://www.w3.org/2000/svg" xmlns:xlink="http://www.w3.org/1999/xlink" x="0px"
	 y="0px" viewBox="0 0 595.3 263" style="enable-background:new 0 0 595.3 263;" xml:space="preserve">
<style type="text/css">
	.st0{fill:#91949B;}
</style>
<g>
	<g>
		<path class="st0" d="M306.7,85.2c8-2,20.6-3.3,32.7-3.3c11.2,0,24.2,1.8,33.3,8.3c8.4,5.8,13.5,14.5,13.5,26.5
			c0,15.8-7.2,27.7-17.1,35.3c-10.2,8-24.7,11.5-39.9,11.5c-4.5,0-8.2-0.4-11-0.7l-8.5,45.1h-26.2L306.7,85.2z M322.3,141.1
			c2.8,0.6,5.8,0.9,10.2,0.9c16.2,0,26.7-10.4,26.7-22.9c0-12.1-8.7-16-19.1-16c-5,0-8.5,0.4-10.8,0.9L322.3,141.1z"/>
		<path class="st0" d="M411.6,208.5c0.1-4,0.6-8.6,1-13.5h-0.4c-6.3,11.2-14.8,15-22.8,15c-12.2,0-20.5-9.4-20.5-23.6
			c0-22.9,15.1-47.3,48.6-47.3c8,0,16.8,1.5,22.5,3.3l-7.2,35.5c-1.7,8.8-2.9,22.1-2.7,30.5H411.6z M417.4,154.8
			c-1.5-0.3-3.5-0.6-5.4-0.6c-12.9,0-22.3,15.8-22.3,28.5c0,6.6,2.6,11.2,8.2,11.2c6,0,13.3-6.8,16.4-23.5L417.4,154.8z"/>
		<path class="st0" d="M444.7,208.5l7.7-40.4c1.9-10.3,2.8-21.7,3.5-27.5h17.3c-0.4,4.6-0.8,9.2-1.2,13.9h0.4
			c4.7-9,12.3-15.4,21.6-15.4c1.3,0,2.5,0,3.8,0.1l-3.9,19.4c-1,0-2.1-0.1-3.2-0.1c-12.8,0-18.7,11.4-21.2,24.7l-4.7,25.3H444.7z"/>
		<path class="st0" d="M496.1,208.5l18.6-98.5h19.9l-11.1,59h0.3c2.1-2.6,4.2-5.3,6.1-7.8l17.3-20.5h24.6l-28.9,27.9l18.9,40h-22.2
			l-11.9-29l-7.5,7.2l-4.2,21.8H496.1z"/>
		<g>
			<path class="st0" d="M106.7,83.9c9.7-21.2,25-36.3,47.9-47.4c9,1.5,17.6,3.3,25.9,5.3l-10.2,3.5l-7.5,3l-5.6,2.4l-3.3,1.5
				c-5.6,2.7-10.6,5.3-15.4,8.1l-8.4,5.2l-5.7,4l-5.5,4.1l-5.4,4.4C111,79.8,108.8,81.8,106.7,83.9z"/>
		</g>
		<path class="st0" d="M289.4,134.9c0-13-2.9-24.8-8.5-35.4l-3.7,9.8c-4.1-2.2-13-5.8-23.4-5.6c-12.4,0-19,6.3-19,13.2
			c0,7.2,7.6,11.7,18.2,17.7c15.2,8,24.9,18.2,24.9,33.1c0,3-0.3,5.8-0.8,8.5C285,163.5,289.4,149.6,289.4,134.9z"/>
		<g>
			<path class="st0" d="M140.3,207.6l-0.6,3.3h6.5l2.7,1.4c13.5,7.4,28.9,12.8,45.9,16.1c-17.2,4.8-35.4,7.2-54.2,7.2
				c-15.8,0-30.3-1.7-43.2-5.2c-23.3-18.1-31.9-42-25.3-71c3.6-15.9,9.9-30.8,18.8-44.4c-0.9,14.6,1.7,29.4,7.5,43.2
				c7.3,17.5,19.6,32.8,35.8,44.8L140.3,207.6z"/>
		</g>
		<path class="st0" d="M208.2,221.5c-15.1-1.9-29-5.5-41.5-10.6h5.8l24.9-131.1h-32.7l-22.4,117.9c-16.3-11.3-28.6-26.1-35.7-43
			c-6.7-15.9-8.6-33.1-5.5-49.7l0.5-2.9l2-2.2c4.9-5.5,10-10.6,15.5-15.2l4.9-4l2.3-1.8l5.3-3.8l2.7-1.9l5.4-3.4l3.1-1.9
			c4.6-2.7,9.3-5.2,14.2-7.5l7-3.2l6.5-2.7l6.6-2.4l9-2.9l3.5-1l7.8-2c26.6,8,47.5,18.6,62.3,31.6c-1.2,0-2.4-0.1-3.6-0.1
			c-30.8,0-52.4,17.9-52.4,43.6c0,18.6,14.7,28.9,27.6,35.8c11.3,5.9,15.3,9.8,15.3,15.1c0,8.7-9.1,11.7-16.9,11.7
			c-9.8,0-20-2.8-28-7.6l-2.9-1.8l-11,27.2l1.8,1.4c7.6,5.7,21.6,9.3,37.5,9.7l0,0c2.1,0,4.1-0.1,6-0.2c-6.2,3.5-12.8,6.7-19.8,9.4
			L208.2,221.5z"/>
		<path class="st0" d="M77,223.1c-34.2-16.2-53.5-47.7-53.5-88.2c0-49.2,30.3-102.1,96.8-102.2c6.3,0,12.9,0.5,19.6,1.4
			c-19.9,12-33.6,27.6-42.7,48.7c-1.5,3.6-2.9,7.4-4,11.5l-1,3.5l-2,2.5c-13.2,17-22.3,36.2-27.1,57.1
			C57.6,182.4,62.4,204.9,77,223.1z"/>
	</g>
</g>
</svg>
