<?xml version="1.0" encoding="utf-8"?>
<!-- Generator: Adobe Illustrator 26.0.0, SVG Export Plug-In . SVG Version: 6.00 Build 0)  -->
<svg version="1.1" id="Layer_1" xmlns="http://www.w3.org/2000/svg" xmlns:xlink="http://www.w3.org/1999/xlink" x="0px" y="0px"
	 viewBox="0 0 309 112" style="enable-background:new 0 0 309 112;" xml:space="preserve">
<style type="text/css">
	.st0{fill:#4D4E51;}
	.st1{fill:#00AAFF;}
</style>
<g>
	<path class="st0" d="M13.3,70.1c3.4,2.1,10.4,4.4,15.8,4.4c5.6,0,7.9-1.9,7.9-4.9c0-3.1-1.9-4.6-8.7-6.9C16,58.7,11.4,52,11.4,45
		c0-11.1,9.4-19.5,24.1-19.5c6.9,0,13.1,1.6,16.7,3.5L49,41.6c-2.7-1.4-7.8-3.3-12.8-3.3c-4.5,0-7.1,1.8-7.1,4.8
		c0,2.8,2.4,4.3,9.6,6.8c11.3,3.8,16,9.6,16,18.3c0,11.1-8.6,19.2-25.6,19.2c-7.7,0-14.7-1.7-19.2-4.2L13.3,70.1z"/>
	<path class="st0" d="M121.9,26.8c-0.3,3.8-0.5,8.8-0.5,17.7v33c0,11.4-2.3,20.7-9,26.7c-6.5,5.6-15.3,7.3-24,7.3
		c-7.8,0-16-1.6-21.3-4.5l3.7-14c3.7,2.1,10.2,4.4,17.2,4.4c8.7,0,15.4-4.7,15.4-15.6v-3.8H103c-3.5,4.9-9.2,7.7-16,7.7
		C72.4,85.6,62,73.7,62,56.7c0-19.1,12.3-31.2,26.9-31.2c8.1,0,13.2,3.5,16.2,8.4h0.2l0.6-7.1H121.9z M103,51c0-1.2-0.1-2.4-0.4-3.4
		c-1.3-4.9-4.8-8.2-9.9-8.2c-6.7,0-12.1,6.1-12.1,16.9c0,8.8,4.4,15.7,12,15.7c4.8,0,8.6-3.1,9.8-7.4c0.4-1.4,0.5-3.3,0.5-4.9V51z"
		/>
	<path class="st0" d="M223.4,9.9v16.9h13.3v13.6h-13.3v21.5c0,7.2,1.8,10.4,7.3,10.4c2.4,0,4.2-0.3,5.5-0.6l0.1,14
		c-2.4,0.9-6.8,1.6-11.9,1.6c-6,0-10.9-2.1-13.9-5.1c-3.4-3.5-5.1-9.2-5.1-17.6V40.4h-7.9V26.8h7.9V14.1L223.4,9.9z"/>
	<path class="st0" d="M260.3,62.4c0.5,7.6,8.1,11.3,16.7,11.3c6.2,0,11.3-0.8,16.3-2.5l2.5,12.5c-6.1,2.5-13.5,3.7-21.5,3.7
		c-20.1,0-31.6-11.7-31.6-30.2c0-15.1,9.4-31.7,29.9-31.7c19.2,0,26.5,14.9,26.5,29.6c0,3.2-0.3,5.9-0.7,7.3H260.3z M281.9,49.8
		c0-4.4-2-12-10.3-12c-7.8,0-10.9,7.1-11.5,12H281.9z"/>
	<circle class="st1" cx="164.1" cy="10.6" r="10.1"/>
	<path class="st1" d="M155.2,61.5 M163.3,41.9h-0.2L147.5,87h-17.4l22.7-60h22L198,87h-18.1L163.3,41.9z"/>
</g>
</svg>
