<svg width="40" height="40" viewBox="0 0 40 40" fill="none" xmlns="http://www.w3.org/2000/svg">
<path d="M32.4479 31.6667H20.8479V13.9667C22.3039 13.5333 23.4399 12.35 23.8559 10.8333H32.4479C33.1039 10.8333 33.6479 10.2667 33.6479 9.58333C33.6479 8.9 33.1039 8.33333 32.4479 8.33333H23.8559C23.3279 6.41667 21.6479 5 19.6479 5C17.6479 5 15.9679 6.41667 15.4399 8.33333H6.84795C6.19195 8.33333 5.64795 8.9 5.64795 9.58333C5.64795 10.2667 6.19195 10.8333 6.84795 10.8333H15.4399C15.8559 12.35 16.9919 13.5333 18.4479 13.9667V31.6667H6.84795C6.19195 31.6667 5.64795 32.2333 5.64795 32.9167C5.64795 33.6 6.19195 34.1667 6.84795 34.1667H32.4479C33.1039 34.1667 33.6479 33.6 33.6479 32.9167C33.6479 32.2333 33.1039 31.6667 32.4479 31.6667Z" fill="#B1B8BE"/>
<path d="M35.2158 21.1002C35.2158 21.0168 35.1998 20.9335 35.1678 20.8502C35.1358 20.7668 35.1038 20.7002 35.0558 20.6168C35.0398 20.5668 35.0238 20.5335 34.9918 20.4835L30.1918 13.8168C29.7438 13.1835 28.7198 13.1835 28.2718 13.8168L23.4718 20.4835C23.4718 20.4835 23.4398 20.5668 23.4078 20.6168C23.3598 20.6835 23.3278 20.7668 23.2958 20.8502C23.2638 20.9335 23.2638 21.0168 23.2478 21.1002C23.2478 21.1502 23.2158 21.2002 23.2158 21.2502C23.2158 21.3002 23.2158 21.3502 23.2158 21.4002C23.2158 21.4168 23.2158 21.4335 23.2158 21.4502C23.3118 24.8002 25.9518 27.5002 29.1998 27.5002C32.4478 27.5002 35.0718 24.8002 35.1838 21.4502C35.1838 21.4335 35.1838 21.4168 35.1838 21.4002C35.1838 21.3502 35.1838 21.3002 35.1838 21.2502C35.1838 21.2002 35.1678 21.1502 35.1518 21.1002H35.2158ZM26.8478 20.0002L29.2478 16.6668L31.6478 20.0002H26.8478Z" fill="#B1B8BE"/>
<path d="M10.048 27.5002C13.296 27.5002 15.92 24.8002 16.032 21.4502C16.032 21.4335 16.032 21.4168 16.032 21.4002C16.032 21.3502 16.032 21.3002 16.032 21.2502C16.032 21.2002 16.016 21.1502 16 21.1002C16 21.0168 15.984 20.9335 15.952 20.8502C15.92 20.7668 15.888 20.7002 15.84 20.6168C15.824 20.5668 15.808 20.5335 15.776 20.4835L10.976 13.8168C10.528 13.1835 9.504 13.1835 9.056 13.8168L4.256 20.4835C4.256 20.4835 4.224 20.5668 4.192 20.6168C4.144 20.6835 4.112 20.7668 4.08 20.8502C4.048 20.9335 4.048 21.0168 4.032 21.1002C4.032 21.1502 4 21.2002 4 21.2502C4 21.3002 4 21.3502 4 21.4002C4 21.4168 4 21.4335 4 21.4502C4.096 24.8002 6.736 27.5002 9.984 27.5002H10.048ZM10.048 16.6668L12.448 20.0002H7.648L10.048 16.6668Z" fill="#B1B8BE"/>
</svg>
