<svg width="40" height="40" viewBox="0 0 40 40" fill="none" xmlns="http://www.w3.org/2000/svg">
<path d="M16.6004 11.5H23.0004C23.6564 11.5 24.2004 10.9333 24.2004 10.25V6.91667C24.2004 5.31667 22.9364 4 21.4004 4H18.2004C16.6644 4 15.4004 5.31667 15.4004 6.91667V10.25C15.4004 10.9333 15.9444 11.5 16.6004 11.5ZM17.8004 6.91667C17.8004 6.68333 17.9764 6.5 18.2004 6.5H21.4004C21.6244 6.5 21.8004 6.68333 21.8004 6.91667V9H17.8004V6.91667Z" fill="#00AAFF"/>
<path d="M19.7998 22.3332C20.9044 22.3332 21.7998 21.4005 21.7998 20.2498C21.7998 19.0992 20.9044 18.1665 19.7998 18.1665C18.6952 18.1665 17.7998 19.0992 17.7998 20.2498C17.7998 21.4005 18.6952 22.3332 19.7998 22.3332Z" fill="#00AAFF"/>
<path d="M26.6 7.71729V10.2506C26.6 12.3173 24.984 14.0006 23 14.0006H16.6C14.616 14.0006 13 12.3173 13 10.2506V7.71729C10.68 8.58395 9 10.8673 9 13.584V30.2507C9 33.7007 11.688 36.5007 15 36.5007H24.6C27.912 36.5007 30.6 33.7007 30.6 30.2507V13.584C30.6 10.8673 28.92 8.58395 26.6 7.71729ZM19.8 15.6673C22.232 15.6673 24.2 17.7173 24.2 20.2507C24.2 22.784 22.232 24.834 19.8 24.834C17.368 24.834 15.4 22.784 15.4 20.2507C15.4 17.7173 17.368 15.6673 19.8 15.6673ZM25.128 31.3673C24.952 31.4507 24.776 31.5007 24.6 31.5007C24.152 31.5007 23.736 31.2507 23.528 30.8173L22.808 29.334C22.472 28.6173 21.784 28.184 21.016 28.184H18.568C17.8 28.184 17.112 28.6173 16.776 29.334L16.056 30.8173C15.752 31.434 15.048 31.684 14.44 31.384C13.848 31.0673 13.608 30.3173 13.896 29.7007L14.616 28.2173C15.368 26.6507 16.872 25.684 18.552 25.684H21C22.68 25.684 24.184 26.6507 24.936 28.2173L25.656 29.7007C25.96 30.3173 25.72 31.0673 25.112 31.384L25.128 31.3673Z" fill="#00AAFF"/>
</svg>
