<svg width="40" height="40" viewBox="0 0 40 40" fill="none" xmlns="http://www.w3.org/2000/svg">
<path d="M21.996 4C14.716 4 8.796 10.1667 8.796 17.75C8.796 21.0833 9.948 24.15 11.852 26.55L4.348 34.3667C3.884 34.85 3.884 35.65 4.348 36.1333C4.588 36.3833 4.892 36.5 5.196 36.5C5.5 36.5 5.804 36.3833 6.044 36.1333L13.548 28.3167C15.836 30.3 18.78 31.5 21.996 31.5C29.276 31.5 35.196 25.3333 35.196 17.75C35.196 10.1667 29.276 4 21.996 4ZM30.156 14.3333L26.46 19.4667C25.98 20.15 25.228 20.5667 24.412 20.6333C23.596 20.6833 22.812 20.3833 22.236 19.7833L19.868 17.3167C19.708 17.15 19.452 17.15 19.308 17.3167L15.644 21.1333C15.404 21.3833 15.1 21.5 14.796 21.5C14.492 21.5 14.188 21.3833 13.948 21.1333C13.484 20.65 13.484 19.85 13.948 19.3667L17.612 15.55C18.7 14.4167 20.476 14.4167 21.564 15.55L23.932 18.0167C24.044 18.1333 24.188 18.15 24.236 18.1333C24.3 18.1333 24.428 18.1 24.524 17.9667L28.22 12.8333C28.62 12.2833 29.372 12.1667 29.9 12.5833C30.428 13 30.54 13.7833 30.14 14.3333H30.156Z" fill="#B1B8BE"/>
</svg>
