<svg width="40" height="40" viewBox="0 0 40 40" fill="none" xmlns="http://www.w3.org/2000/svg">
<path d="M7.2 19C5.44 19 4 20.5 4 22.3333V34C4 35.8333 5.44 37.3333 7.2 37.3333C8.96 37.3333 10.4 35.8333 10.4 34V22.3333C10.4 20.5 8.96 19 7.2 19Z" fill="#00AAFF"/>
<path d="M18.4004 9.5C18.4004 6.41667 20.7204 4 23.6804 4C25.3444 4 26.9604 4.81667 28.0004 6.08333C29.0404 4.81667 30.6564 4 32.3204 4C35.2804 4 37.6004 6.41667 37.6004 9.5C37.6004 13 33.6004 17.0167 29.0724 21.3167C28.4644 21.9 27.5204 21.9 26.9124 21.3167C22.4004 17.0167 18.4004 13 18.4004 9.5Z" fill="#00AAFF"/>
<path d="M34.3841 29H23.4561C23.2801 29 23.1041 28.9667 22.9281 28.9L20.5761 28.05C20.1601 27.9 19.9521 27.4333 20.0961 27C20.2401 26.5667 20.7041 26.3333 21.1201 26.5L22.9121 27.2167C23.0881 27.2833 23.2961 27.3333 23.4881 27.3333H27.6961C28.7361 27.3333 29.5841 26.45 29.5841 25.3667C29.5841 24.55 29.0881 23.8167 28.3521 23.5167L17.2801 19.2167C16.9281 19.0667 16.5441 19 16.1601 19H13.6001V34.0333L23.7921 37.05C24.4481 37.25 25.1521 37.2167 25.7921 36.9667L37.6001 32.3333C37.6001 30.4833 36.1601 29 34.3841 29Z" fill="#00AAFF"/>
</svg>
