<svg width="40" height="40" viewBox="0 0 40 40" fill="none" xmlns="http://www.w3.org/2000/svg">
<path d="M19.6 19.8333C23.7974 19.8333 27.2 16.2889 27.2 11.9167C27.2 7.54442 23.7974 4 19.6 4C15.4026 4 12 7.54442 12 11.9167C12 16.2889 15.4026 19.8333 19.6 19.8333Z" fill="#00AAFF"/>
<path d="M32.416 24.8496C24.208 21.5163 14.992 21.5163 6.784 24.8496C5.088 25.5329 4 27.2163 4 29.1163V31.9163C4 34.4496 5.968 36.4996 8.4 36.4996H30.8C33.232 36.4996 35.2 34.4496 35.2 31.9163V29.1163C35.2 27.2163 34.112 25.5329 32.416 24.8496Z" fill="#00AAFF"/>
</svg>
