<svg width="40" height="40" viewBox="0 0 40 40" fill="none" xmlns="http://www.w3.org/2000/svg">
<path d="M26.8 4H14C10.688 4 8 6.8 8 10.25V30.25C8 33.7 10.688 36.5 14 36.5H26.8C30.112 36.5 32.8 33.7 32.8 30.25V10.25C32.8 6.8 30.112 4 26.8 4ZM15.6 12.3333H20.4C21.056 12.3333 21.6 12.9 21.6 13.5833C21.6 14.2667 21.056 14.8333 20.4 14.8333H15.6C14.944 14.8333 14.4 14.2667 14.4 13.5833C14.4 12.9 14.944 12.3333 15.6 12.3333ZM25.2 28.1667H15.6C14.944 28.1667 14.4 27.6 14.4 26.9167C14.4 26.2333 14.944 25.6667 15.6 25.6667H25.2C25.856 25.6667 26.4 26.2333 26.4 26.9167C26.4 27.6 25.856 28.1667 25.2 28.1667ZM25.2 21.5H15.6C14.944 21.5 14.4 20.9333 14.4 20.25C14.4 19.5667 14.944 19 15.6 19H25.2C25.856 19 26.4 19.5667 26.4 20.25C26.4 20.9333 25.856 21.5 25.2 21.5Z" fill="#00AAFF"/>
</svg>
