<svg width="40" height="40" viewBox="0 0 40 40" fill="none" xmlns="http://www.w3.org/2000/svg">
<path d="M18.1919 13.1667H22.6079C24.7039 13.1667 26.3999 11.4 26.3999 9.21667C26.3999 8.6 26.2559 8 25.9999 7.45L25.3919 6.18333C24.7519 4.83333 23.4399 4 21.9999 4H18.7999C17.3599 4 16.0639 4.83333 15.4079 6.18333L14.7999 7.45C14.5439 8 14.3999 8.6 14.3999 9.21667C14.3999 11.4 16.0959 13.1667 18.1919 13.1667Z" fill="#B1B8BE"/>
<path d="M27.68 7.43262C27.872 8.01595 28 8.61595 28 9.23262C28 12.3326 25.584 14.8493 22.608 14.8493H18.192C15.216 14.8493 12.8 12.3326 12.8 9.23262C12.8 8.61595 12.928 8.01595 13.12 7.43262C10.224 7.88262 8 10.4493 8 13.5826V30.2493C8 33.6993 10.688 36.4993 14 36.4993H26.8C30.112 36.4993 32.8 33.6993 32.8 30.2493V13.5826C32.8 10.4493 30.576 7.86595 27.68 7.43262ZM19.648 27.7993L16.448 31.1327C16.208 31.3827 15.904 31.4993 15.6 31.4993C15.296 31.4993 14.992 31.3827 14.752 31.1327L13.152 29.466C12.688 28.9827 12.688 28.1827 13.152 27.6993C13.616 27.216 14.384 27.216 14.848 27.6993L15.6 28.4827L17.952 26.0327C18.416 25.5493 19.184 25.5493 19.648 26.0327C20.112 26.516 20.112 27.316 19.648 27.7993ZM19.648 19.466L16.448 22.7993C16.208 23.0493 15.904 23.166 15.6 23.166C15.296 23.166 14.992 23.0493 14.752 22.7993L13.152 21.1327C12.688 20.6493 12.688 19.8493 13.152 19.366C13.616 18.8827 14.384 18.8827 14.848 19.366L15.6 20.1493L17.952 17.6993C18.416 17.216 19.184 17.216 19.648 17.6993C20.112 18.1827 20.112 18.9827 19.648 19.466ZM26.8 29.8327H22C21.344 29.8327 20.8 29.266 20.8 28.5827C20.8 27.8993 21.344 27.3327 22 27.3327H26.8C27.456 27.3327 28 27.8993 28 28.5827C28 29.266 27.456 29.8327 26.8 29.8327ZM26.8 21.4993H22C21.344 21.4993 20.8 20.9327 20.8 20.2493C20.8 19.566 21.344 18.9993 22 18.9993H26.8C27.456 18.9993 28 19.566 28 20.2493C28 20.9327 27.456 21.4993 26.8 21.4993Z" fill="#B1B8BE"/>
</svg>
