<svg width="40" height="40" viewBox="0 0 40 40" fill="none" xmlns="http://www.w3.org/2000/svg">
<path d="M19.616 25.6829C22.4879 25.6829 24.816 23.2578 24.816 20.2663C24.816 17.2748 22.4879 14.8496 19.616 14.8496C16.7442 14.8496 14.416 17.2748 14.416 20.2663C14.416 23.2578 16.7442 25.6829 19.616 25.6829Z" fill="#B1B8BE"/>
<path d="M32.784 15.3167C32.528 15.25 32.336 15.0667 32.224 14.8167C32.128 14.5667 32.144 14.2833 32.272 14.05C33.04 12.7333 32.832 11.05 31.792 9.96667L29.488 7.56667C28.448 6.48333 26.832 6.26667 25.568 7.06667C25.344 7.2 25.072 7.23333 24.832 7.11667C24.592 7.01667 24.416 6.8 24.352 6.53333C24 5.03333 22.704 4 21.232 4H17.984C16.512 4 15.232 5.05 14.864 6.53333C14.8 6.8 14.624 7 14.384 7.11667C14.144 7.21667 13.872 7.2 13.648 7.06667C12.384 6.28333 10.768 6.48333 9.728 7.56667L7.424 9.96667C6.384 11.05 6.176 12.7333 6.944 14.05C7.072 14.2833 7.104 14.5667 6.992 14.8167C6.896 15.0667 6.688 15.25 6.432 15.3167C4.992 15.6833 4 17.0166 4 18.5666V21.9666C4 23.5 5.008 24.8499 6.432 25.2166C6.688 25.2833 6.88 25.4666 6.992 25.7166C7.088 25.9666 7.072 26.2499 6.944 26.4833C6.176 27.7999 6.384 29.4833 7.424 30.5666L9.728 32.9666C10.768 34.0499 12.384 34.2666 13.648 33.4666C13.872 33.3333 14.144 33.2999 14.384 33.4166C14.624 33.5166 14.8 33.7333 14.864 33.9999C15.216 35.4999 16.512 36.5333 17.984 36.5333H21.232C22.704 36.5333 23.984 35.4833 24.352 33.9999C24.416 33.7333 24.592 33.5333 24.832 33.4166C25.072 33.3166 25.344 33.3333 25.568 33.4666C26.832 34.2499 28.448 34.0499 29.488 32.9666L31.792 30.5666C32.832 29.4833 33.04 27.7999 32.272 26.4833C32.144 26.2499 32.112 25.9666 32.224 25.7166C32.32 25.4666 32.528 25.2833 32.784 25.2166C34.224 24.8499 35.216 23.5166 35.216 21.9666V18.5666C35.216 17.0333 34.208 15.6833 32.784 15.3167ZM19.616 28.1833C15.424 28.1833 12.016 24.6333 12.016 20.2666C12.016 15.9 15.424 12.35 19.616 12.35C23.808 12.35 27.216 15.9 27.216 20.2666C27.216 24.6333 23.808 28.1833 19.616 28.1833Z" fill="#B1B8BE"/>
</svg>
