<svg width="40" height="40" viewBox="0 0 40 40" fill="none" xmlns="http://www.w3.org/2000/svg">
<path d="M20.3798 5C17.8262 5 15.7598 7.05 15.7598 9.58333V31.25C15.7598 33.7833 17.8262 35.8333 20.3798 35.8333C22.9334 35.8333 24.9998 33.7833 24.9998 31.25V9.58333C24.9998 7.05 22.9334 5 20.3798 5Z" fill="#B1B8BE"/>
<path d="M32.14 13.3335C29.5864 13.3335 27.52 15.3835 27.52 17.9168V31.2502C27.52 33.7835 29.5864 35.8335 32.14 35.8335C34.6936 35.8335 36.76 33.7835 36.76 31.2502V17.9168C36.76 15.3835 34.6936 13.3335 32.14 13.3335Z" fill="#B1B8BE"/>
<path d="M8.62 20C6.0664 20 4 22.05 4 24.5833V31.25C4 33.7833 6.0664 35.8333 8.62 35.8333C11.1736 35.8333 13.24 33.7833 13.24 31.25V24.5833C13.24 22.05 11.1736 20 8.62 20Z" fill="#B1B8BE"/>
</svg>
