<svg width="40" height="40" viewBox="0 0 40 40" fill="none" xmlns="http://www.w3.org/2000/svg">
<path d="M12.3895 19.8333C15.2613 19.8333 17.5895 17.4082 17.5895 14.4167C17.5895 11.4251 15.2613 9 12.3895 9C9.51757 9 7.18945 11.4251 7.18945 14.4167C7.18945 17.4082 9.51757 19.8333 12.3895 19.8333Z" fill="#00AAFF"/>
<path d="M26.7889 19.8333C29.6607 19.8333 31.9889 17.4082 31.9889 14.4167C31.9889 11.4251 29.6607 9 26.7889 9C23.917 9 21.5889 11.4251 21.5889 14.4167C21.5889 17.4082 23.917 19.8333 26.7889 19.8333Z" fill="#00AAFF"/>
<path d="M34.6612 27.3832C33.9092 23.4832 30.5972 20.6665 26.7892 20.6665C23.6852 20.6665 20.9172 22.5332 19.5892 25.3332C18.2612 22.5332 15.4932 20.6665 12.3892 20.6665C8.58116 20.6665 5.26916 23.4998 4.51716 27.3832L4.02116 29.9998C3.95716 30.3665 4.03716 30.7498 4.27716 31.0332C4.51716 31.3165 4.85316 31.4832 5.20516 31.4832H33.9892C34.3412 31.4832 34.6932 31.3165 34.9172 31.0332C35.1412 30.7498 35.2372 30.3665 35.1732 29.9998L34.6772 27.3832H34.6612Z" fill="#00AAFF"/>
</svg>
