<svg width="40" height="40" viewBox="0 0 40 40" fill="none" xmlns="http://www.w3.org/2000/svg">
<path d="M12.672 22.5H24.4C26.832 22.5 28.8 20.45 28.8 17.9167V9.58333C28.8 7.05 26.832 5 24.4 5H8.4C5.968 5 4 7.05 4 9.58333V26.25C4 26.7167 4.256 27.15 4.656 27.3667C4.832 27.45 5.008 27.5 5.2 27.5C5.456 27.5 5.712 27.4167 5.92 27.25L11.472 22.9167C11.808 22.65 12.24 22.5 12.672 22.5Z" fill="#B1B8BE"/>
<path d="M31.2 11.7173V17.9173C31.2 21.8173 28.144 25.0007 24.4 25.0007H12.8L10.832 26.534C11.536 28.084 13.04 29.1673 14.8 29.1673H26.528C26.96 29.1673 27.392 29.3173 27.728 29.584L33.28 33.9173C33.488 34.084 33.744 34.1673 34 34.1673C34.176 34.1673 34.368 34.1173 34.528 34.034C34.928 33.8173 35.2 33.384 35.2 32.9173V16.2507C35.2 13.8673 33.44 11.9173 31.2 11.7173Z" fill="#B1B8BE"/>
</svg>
