<svg width="20" height="20" viewBox="0 0 20 20" fill="none" xmlns="http://www.w3.org/2000/svg">
<path d="M12 13L9 16L12 19" stroke="#464C53" stroke-width="2"/>
<path d="M15.1962 7C15.7228 7.91212 16 8.94678 16 10C16 11.0532 15.7228 12.0879 15.1962 13C14.6695 13.9121 13.9121 14.6695 13 15.1962C12.0879 15.7228 11.0532 16 10 16" stroke="#464C53" stroke-width="2" stroke-linecap="round"/>
<path d="M8 7L11 4L8 1" stroke="#464C53" stroke-width="2"/>
<path d="M4.80385 13C4.27724 12.0879 4 11.0532 4 10C4 8.94678 4.27724 7.91212 4.80385 7C5.33046 6.08788 6.08788 5.33046 7 4.80385C7.91212 4.27724 8.94678 4 10 4" stroke="#464C53" stroke-width="2" stroke-linecap="round"/>
</svg>
