<svg width="40" height="40" viewBox="0 0 40 40" fill="none" xmlns="http://www.w3.org/2000/svg">
<path d="M8 8C8 5.79086 9.79086 4 12 4H30C31.1046 4 32 4.89543 32 6V35C32 35.5523 31.5523 36 31 36H12C9.79086 36 8 34.2091 8 32V8Z" fill="#9A5B34"/>
<path d="M12 4H30C31.1046 4 32 4.89543 32 6V29H12V4Z" fill="#9F6440"/>
<path d="M12 4H29C30.1046 4 31 4.89543 31 6V29H12V4Z" fill="#B47A56"/>
<path d="M9 32C9 30.3431 10.3431 29 12 29H32V35H12C10.3431 35 9 33.6569 9 32Z" fill="#CDD1D5"/>
<path d="M10 32.5C10 31.1193 11.1193 30 12.5 30H32V35H12.5C11.1193 35 10 33.8807 10 32.5Z" fill="#F4F5F6"/>
<circle cx="22" cy="16" r="6" fill="#E6E8EA"/>
<circle cx="21.5" cy="16.5" r="5.5" fill="white"/>
<circle cx="22" cy="12" r="1" fill="#1E2124"/>
<path d="M21 15C21 14.4477 21.4477 14 22 14H23V19C23 19.5523 22.5523 20 22 20H21V15Z" fill="#1E2124"/>
</svg>
